# File created by Blade
# Date/Time:  Fri Jan 16 19:00:24 2015
# Frame Rate: 120.000 fps
#------------------------------------------------------
:FULLY-SPECIFIED
:DEGREES
4028
root 20.800677 35.614907 -22.272186 186.737682 1.694930 -179.085966
Spine -6.672274 6.933528 -2.649499
Head 12.876984 2.861010 2.499688
LeftShoulder -7.770913 -27.861550 15.640590
LeftArm -4.065011 -6.780137 -10.768686
LeftForeArm -7.411761 -0.000000 -2.336604
LeftHand -3.034300 -0.000000 -2.817847
LeftHandThumb1 -26.253704 0.000000 33.147579
RightShoulder -10.582035 -9.906778 -5.981996
RightArm 7.752984 37.032175 20.749094
RightForeArm -28.642425 -0.000000 7.830286
RightHand -7.494734 -0.000000 3.899463
RightHandThumb1 -24.326973 -0.000000 -32.862282
LeftUpLeg -0.015819 14.815310 1.400519
LeftLeg -5.652273 -0.000000 0.000000
LeftFoot -18.917147 28.058404 -13.512255
LeftToeBase 25.812913 -0.000000 -0.000000
RightUpLeg -3.196552 -7.617043 -1.768452
RightLeg -2.997841 -0.000000 0.000000
RightFoot -16.784117 -22.481403 15.352311
RightToeBase 23.954209 -0.000000 -0.000000
4029
root 20.814487 35.610205 -22.311047 186.829534 1.705939 -179.048107
Spine -7.098651 6.837697 -2.571309
Head 12.122998 3.036137 2.530548
LeftShoulder -7.653109 -27.888639 15.604110
LeftArm -4.037320 -6.757026 -10.749376
LeftForeArm -7.512788 -0.000000 -2.295630
LeftHand -2.986549 0.000000 -2.353007
LeftHandThumb1 -26.253704 0.000000 33.147579
RightShoulder -10.465098 -9.894904 -6.057857
RightArm 7.698533 36.977756 20.608966
RightForeArm -28.720087 -0.000000 7.825771
RightHand -7.278324 0.000000 3.964840
RightHandThumb1 -24.326973 -0.000000 -32.862282
LeftUpLeg -0.044244 14.815504 1.453644
LeftLeg -5.644406 -0.000000 0.000000
LeftFoot -18.992370 28.071589 -13.493251
LeftToeBase 25.841796 -0.000000 -0.000000
RightUpLeg -3.239303 -7.566981 -1.708190
RightLeg -2.968910 -0.000000 0.000000
RightFoot -16.880798 -22.505336 15.352107
RightToeBase 23.901229 -0.000000 -0.000000
4030
root 20.826689 35.606767 -22.351222 186.935888 1.726981 -179.021084
Spine -7.530190 6.705974 -2.502628
Head 11.355092 3.268432 2.571422
LeftShoulder -7.624219 -27.890310 15.603416
LeftArm -3.998459 -6.759553 -10.741383
LeftForeArm -7.380641 -0.000000 -2.230445
LeftHand -2.974944 -0.000000 -1.944773
LeftHandThumb1 -26.253704 0.000000 33.147579
RightShoulder -10.416197 -9.854428 -6.088509
RightArm 7.839869 36.888824 20.506527
RightForeArm -28.746989 -0.000000 7.752308
RightHand -7.437756 0.000000 3.975762
RightHandThumb1 -24.326973 -0.000000 -32.862282
LeftUpLeg -0.080967 14.843463 1.487611
LeftLeg -5.642057 -0.000000 0.000000
LeftFoot -19.064035 28.054473 -13.516148
LeftToeBase 25.886621 -0.000000 -0.000000
RightUpLeg -3.301541 -7.528919 -1.659500
RightLeg -2.929901 -0.000000 0.000000
RightFoot -16.966804 -22.504452 15.334249
RightToeBase 24.164394 -0.000000 -0.000000
4031
root 20.838534 35.602437 -22.389675 187.003812 1.733492 -178.996497
Spine -7.917252 6.597684 -2.430610
Head 10.640086 3.441611 2.619032
LeftShoulder -7.487920 -27.926668 15.551315
LeftArm -4.015507 -6.880374 -10.682991
LeftForeArm -7.123095 -0.000000 -2.175109
LeftHand -2.923710 -0.000000 -1.559481
LeftHandThumb1 -26.253704 0.000000 33.147579
RightShoulder -10.348809 -9.750525 -6.145554
RightArm 7.852231 36.854352 20.369566
RightForeArm -28.988572 0.000000 7.748830
RightHand -7.402916 -0.000000 4.141574
RightHandThumb1 -24.326973 -0.000000 -32.862282
LeftUpLeg -0.082985 14.855143 1.529029
LeftLeg -5.642161 -0.000000 0.000000
LeftFoot -19.118550 28.057869 -13.496364
LeftToeBase 25.884264 -0.000000 -0.000000
RightUpLeg -3.337581 -7.532239 -1.615565
RightLeg -2.866380 -0.000000 0.000000
RightFoot -17.062682 -22.506589 15.277019
RightToeBase 23.913262 -0.000000 -0.000000
4032
root 20.850551 35.598401 -22.428876 187.074101 1.738531 -178.969094
Spine -8.308116 6.445391 -2.360820
Head 9.953046 3.664857 2.703057
LeftShoulder -7.456653 -27.954378 15.552043
LeftArm -3.982331 -6.840820 -10.658909
LeftForeArm -7.087593 -0.000000 -2.107004
LeftHand -2.853127 -0.000000 -1.177175
LeftHandThumb1 -26.253704 0.000000 33.147579
RightShoulder -10.214290 -9.694075 -6.184296
RightArm 7.845404 36.897890 20.232750
RightForeArm -29.221474 -0.000000 7.777495
RightHand -7.462080 -0.000000 4.216096
RightHandThumb1 -24.326973 -0.000000 -32.862282
LeftUpLeg -0.087912 14.845526 1.573555
LeftLeg -5.635082 -0.000000 0.000000
LeftFoot -19.196650 28.060210 -13.524718
LeftToeBase 25.884854 -0.000000 -0.000000
RightUpLeg -3.354716 -7.500598 -1.568254
RightLeg -2.843267 -0.000000 0.000000
RightFoot -17.150588 -22.507956 15.279764
RightToeBase 23.921466 -0.000000 -0.000000
4033
root 20.862639 35.593278 -22.469345 187.179544 1.766745 -178.913633
Spine -8.738360 6.376857 -2.272818
Head 9.299232 3.784724 2.790588
LeftShoulder -7.343465 -28.030740 15.514939
LeftArm -3.996538 -6.829156 -10.609776
LeftForeArm -6.925863 -0.000000 -1.985748
LeftHand -2.940381 -0.000000 -0.906439
LeftHandThumb1 -26.253704 0.000000 33.147579
RightShoulder -10.199752 -9.662771 -6.257228
RightArm 7.949190 36.890316 20.204328
RightForeArm -29.441180 -0.000000 7.789349
RightHand -7.399218 -0.000000 4.243450
RightHandThumb1 -24.326973 -0.000000 -32.862282
LeftUpLeg -0.102016 14.850729 1.636756
LeftLeg -5.667123 -0.000000 0.000000
LeftFoot -19.265069 28.098312 -13.498309
LeftToeBase 25.954254 -0.000000 -0.000000
RightUpLeg -3.404383 -7.463628 -1.492088
RightLeg -2.824601 -0.000000 0.000000
RightFoot -17.225906 -22.497906 15.244701
RightToeBase 23.948231 -0.000000 -0.000000
4034
root 20.872614 35.588492 -22.509306 187.253606 1.792483 -178.878219
Spine -9.134710 6.320855 -2.210571
Head 8.677714 3.865402 2.907080
LeftShoulder -7.219297 -28.091842 15.474039
LeftArm -3.986552 -6.719939 -10.587845
LeftForeArm -6.817399 -0.000000 -1.907188
LeftHand -2.872791 -0.000000 -0.573740
LeftHandThumb1 -26.253704 0.000000 33.147579
RightShoulder -10.190751 -9.569793 -6.296325
RightArm 8.028086 36.779498 20.099382
RightForeArm -29.622393 -0.000000 7.762978
RightHand -7.398271 -0.000000 4.266124
RightHandThumb1 -24.326973 -0.000000 -32.862282
LeftUpLeg -0.076072 14.841979 1.685001
LeftLeg -5.717614 -0.000000 0.000000
LeftFoot -19.334998 28.132064 -13.514813
LeftToeBase 25.994035 -0.000000 -0.000000
RightUpLeg -3.411298 -7.448819 -1.437120
RightLeg -2.833280 -0.000000 0.000000
RightFoot -17.276235 -22.510162 15.188602
RightToeBase 23.973155 -0.000000 -0.000000
